<svg xmlns:xsi="http://www.w3.org/2001/XMLSchema-instance"
  xsi:noNamespaceSchemaLocation="note.xsd"
  class="nest-icon"
  width="16"
  height="16"
  fill="rgb(var(--NN500,141,150,170))"
  viewBox="0 0 24 24"
>
  <path
    fill-rule="evenodd"
    clip-rule="evenodd"
    d="M11.12 19.23H6.59c-1 0-1.8-.81-1.8-1.8V5.56c0-1 .81-1.8 1.8-1.8h9.14c.99 0 1.8.81 1.8 1.8v4.7c0 .41.34.75.75.75s.75-.34.75-.75v-4.7c0-1.82-1.48-3.3-3.3-3.3H6.59c-1.82 0-3.3 1.48-3.3 3.3v11.86c0 1.82 1.48 3.3 3.3 3.3h4.53c.41 0 .75-.34.75-.75s-.34-.75-.75-.75v.01ZM15.75 5.9h-9.6c-.41 0-.75.34-.75.75s.34.75.75.75h9.6c.41 0 .75-.34.75-.75s-.34-.75-.75-.75Zm-9.6 3.33h9.6c.41 0 .75.34.75.75s-.34.75-.75.75h-9.6c-.41 0-.75-.34-.75-.75s.34-.75.75-.75Zm6.5 3.32h-6.5c-.41 0-.75.34-.75.75s.34.75.75.75h6.5c.41 0 .75-.34.75-.75s-.34-.75-.75-.75Zm7.7-.98 1.4 1.05v.01c.26.2.43.48.48.81.05.32-.03.65-.23.91l-4.88 6.53c-.16.22-.4.38-.67.45l-1.65.43a.977.977 0 0 1-.84-.17.957.957 0 0 1-.39-.76l-.06-1.7c-.01-.28.07-.56.24-.78l4.88-6.53a1.23 1.23 0 0 1 1.72-.25Zm-5.32 8.57.94-.24v-.01l2.64-3.53-.97-.72L15 19.17l.03.97Zm3.51-5.69.97.72 1.13-1.51-.97-.72-1.13 1.51Z"
  ></path>
</svg>